<svg xmlns="http://www.w3.org/2000/svg" version="1.1" xmlns:xlink="http://www.w3.org/1999/xlink" xmlns:svgjs="http://svgjs.dev/svgjs" width="128" height="128" viewBox="0 0 128 128"><g transform="matrix(0.8046875,0,0,0.8046875,12.333870967741937,13.98334869634423)"><svg viewBox="0 0 155 151" data-background-color="#fafcff" preserveAspectRatio="xMidYMid meet" height="124" width="128" xmlns="http://www.w3.org/2000/svg" xmlns:xlink="http://www.w3.org/1999/xlink"><g id="tight-bounds" transform="matrix(1,0,0,1,0.25,0.19071691176469585)"><svg viewBox="0 0 154.5 150.61856617647058" height="150.61856617647058" width="154.5"><g><svg viewBox="0 0 154.5 150.61856617647058" height="150.61856617647058" width="154.5"><g><svg viewBox="0 0 154.5 150.61856617647058" height="150.61856617647058" width="154.5"><g id="textblocktransform"><svg viewBox="0 0 154.5 150.61856617647058" height="150.61856617647058" width="154.5" id="textblock"><g><svg viewBox="0 0 154.5 150.61856617647058" height="150.61856617647058" width="154.5"><g transform="matrix(1,0,0,1,0,0)"><svg width="154.5" viewBox="1.54 -38.84 39.84 38.84" height="150.61856617647058" data-palette-color="#375a82"><path d="M19.48 0L19.48 0 1.54 0 1.54-8.59 5.44-8.59 5.44-30.25 1.54-30.25 1.54-38.84 19.53-38.84Q30.13-38.84 35.75-33.95 41.38-29.05 41.38-19.46L41.38-19.46Q41.38-10.11 35.79-5.05 30.2 0 19.48 0ZM19.48-30.25L17.94-30.25 17.94-8.59 19.48-8.59Q22.22-8.59 23.95-10 25.68-11.4 26.51-13.87 27.34-16.33 27.34-19.46L27.34-19.46Q27.34-24.24 25.49-27.25 23.63-30.25 19.48-30.25L19.48-30.25Z" opacity="1" transform="matrix(1,0,0,1,0,0)" fill="#375a82" class="wordmark-text-0" data-fill-palette-color="primary" id="text-0"></path></svg></g></svg></g></svg></g></svg></g></svg></g><defs></defs></svg><rect width="154.5" height="150.61856617647058" fill="none" stroke="none" visibility="hidden"></rect></g></svg></g></svg>