<?xml version="1.0" encoding="UTF-8"?>
<svg xmlns="http://www.w3.org/2000/svg" xmlns:xlink="http://www.w3.org/1999/xlink" width="20px" height="20px" viewBox="0 0 20 20" version="1.1">
<g id="surface1">
<path style=" stroke:none;fill-rule:nonzero;fill:rgb(0%,0%,0%);fill-opacity:1;" d="M 5.859375 0.0703125 C 4.792969 0.121094 4.066406 0.289062 3.433594 0.539062 C 2.773438 0.796875 2.21875 1.140625 1.664062 1.695312 C 1.109375 2.253906 0.769531 2.808594 0.511719 3.46875 C 0.265625 4.105469 0.101562 4.832031 0.0546875 5.898438 C 0.0078125 6.960938 -0.00390625 7.304688 0 10.019531 C 0.0078125 12.734375 0.0195312 13.074219 0.0703125 14.140625 C 0.121094 15.207031 0.289062 15.933594 0.539062 16.566406 C 0.796875 17.226562 1.140625 17.78125 1.695312 18.335938 C 2.253906 18.890625 2.808594 19.230469 3.46875 19.488281 C 4.105469 19.730469 4.832031 19.898438 5.898438 19.945312 C 6.960938 19.992188 7.304688 20.003906 10.019531 20 C 12.734375 19.992188 13.078125 19.980469 14.144531 19.929688 C 15.210938 19.878906 15.933594 19.710938 16.566406 19.460938 C 17.226562 19.203125 17.78125 18.863281 18.335938 18.304688 C 18.890625 17.746094 19.230469 17.191406 19.484375 16.53125 C 19.734375 15.894531 19.898438 15.167969 19.945312 14.105469 C 19.992188 13.035156 20.003906 12.695312 20 9.980469 C 19.992188 7.265625 19.980469 6.925781 19.929688 5.859375 C 19.878906 4.792969 19.710938 4.066406 19.460938 3.433594 C 19.203125 2.773438 18.859375 2.21875 18.304688 1.664062 C 17.75 1.109375 17.191406 0.765625 16.53125 0.515625 C 15.894531 0.265625 15.167969 0.101562 14.105469 0.0546875 C 13.039062 0.0078125 12.695312 -0.00390625 9.980469 0 C 7.265625 0.0078125 6.925781 0.0195312 5.859375 0.0703125 M 5.976562 18.148438 C 5 18.105469 4.472656 17.941406 4.117188 17.808594 C 3.652344 17.628906 3.316406 17.410156 2.964844 17.0625 C 2.613281 16.714844 2.398438 16.378906 2.214844 15.914062 C 2.078125 15.5625 1.914062 15.03125 1.867188 14.058594 C 1.820312 13.003906 1.808594 12.6875 1.804688 10.015625 C 1.796875 7.347656 1.808594 7.03125 1.855469 5.976562 C 1.894531 5.003906 2.058594 4.472656 2.195312 4.121094 C 2.375 3.652344 2.589844 3.320312 2.9375 2.96875 C 3.289062 2.617188 3.621094 2.402344 4.089844 2.21875 C 4.441406 2.082031 4.96875 1.917969 5.945312 1.871094 C 7 1.820312 7.3125 1.8125 9.984375 1.804688 C 12.652344 1.800781 12.96875 1.808594 14.023438 1.855469 C 15 1.898438 15.53125 2.058594 15.882812 2.195312 C 16.347656 2.375 16.683594 2.589844 17.03125 2.941406 C 17.382812 3.289062 17.601562 3.621094 17.785156 4.089844 C 17.921875 4.441406 18.085938 4.96875 18.132812 5.945312 C 18.179688 7 18.191406 7.316406 18.195312 9.984375 C 18.203125 12.65625 18.191406 12.972656 18.144531 14.027344 C 18.105469 15 17.941406 15.53125 17.804688 15.882812 C 17.625 16.351562 17.410156 16.683594 17.058594 17.035156 C 16.710938 17.386719 16.378906 17.601562 15.910156 17.785156 C 15.558594 17.921875 15.03125 18.085938 14.054688 18.132812 C 13 18.183594 12.6875 18.191406 10.015625 18.199219 C 7.34375 18.203125 7.03125 18.191406 5.976562 18.148438 M 14.128906 4.65625 C 14.128906 5.316406 14.667969 5.855469 15.328125 5.851562 C 15.992188 5.851562 16.527344 5.3125 16.527344 4.652344 C 16.527344 3.988281 15.988281 3.453125 15.324219 3.453125 C 14.664062 3.453125 14.125 3.992188 14.128906 4.65625 M 4.867188 10.011719 C 4.871094 12.847656 7.175781 15.140625 10.007812 15.132812 C 12.84375 15.128906 15.140625 12.824219 15.136719 9.988281 C 15.128906 7.152344 12.824219 4.859375 9.988281 4.863281 C 7.152344 4.871094 4.859375 7.175781 4.867188 10.011719 M 6.667969 10.007812 C 6.664062 8.164062 8.152344 6.671875 9.992188 6.667969 C 11.835938 6.664062 13.328125 8.152344 13.332031 9.992188 C 13.335938 11.835938 11.847656 13.328125 10.007812 13.332031 C 8.164062 13.335938 6.671875 11.847656 6.667969 10.007812 "/>
</g>
</svg>
