<svg xmlns="http://www.w3.org/2000/svg" version="1.1" xmlns:xlink="http://www.w3.org/1999/xlink" xmlns:svgjs="http://svgjs.dev/svgjs" width="197" height="50" viewBox="0 0 2000 691"><g transform="matrix(1,0,0,1,-1.2121212121212466,-0.9142024765740757)"><svg viewBox="0 0 396 137" data-background-color="#ffffff" preserveAspectRatio="xMidYMid meet" height="691" width="2000" xmlns="http://www.w3.org/2000/svg" xmlns:xlink="http://www.w3.org/1999/xlink"><g id="tight-bounds" transform="matrix(1,0,0,1,0.2400000000000091,0.18125287885766284)"><svg viewBox="0 0 395.52 136.63749424228465" height="136.63749424228465" width="395.52"><g><svg viewBox="0 0 395.52 136.63749424228465" height="136.63749424228465" width="395.52"><g><svg viewBox="0 0 395.52 136.63749424228465" height="136.63749424228465" width="395.52"><g id="textblocktransform"><svg viewBox="0 0 395.52 136.63749424228465" height="136.63749424228465" width="395.52" id="textblock"><g><svg viewBox="0 0 395.52 136.63749424228465" height="136.63749424228465" width="395.52"><g transform="matrix(1,0,0,1,0,0)"><svg width="395.52" viewBox="1.55 -31.75 108.54 37.5" height="136.63749424228465" data-palette-color="#61777f"><path d="M10.2 5.75L10.2 5.75Q8.05 5.75 8.05 3.5L8.05 3.5Q8.05 2.4 8.45 1.1L8.45 1.1Q7.55 0.9 6.38 0.5 5.2 0.1 4.1-0.53 3-1.15 2.27-2.05 1.55-2.95 1.55-4.1L1.55-4.1Q1.55-5.4 2.4-6.55 3.25-7.7 4.15-8.5L4.15-8.5Q5.65-9.9 7.8-11 9.95-12.1 12.28-12.9 14.6-13.7 16.55-14.2L16.55-14.2Q17.9-16.25 19.33-18.28 20.75-20.3 22.15-22.3L22.15-22.3Q22.95-23.35 23.73-24.43 24.5-25.5 25.35-26.45L25.35-26.45Q25.3-26.85 25.73-27.5 26.15-28.15 26.68-28.78 27.2-29.4 27.45-29.7L27.45-29.7Q26.7-29.75 25.98-29.78 25.25-29.8 24.5-29.8L24.5-29.8Q22.5-29.8 20.5-29.63 18.5-29.45 16.55-29.1L16.55-29.1Q14.95-28.8 12.85-28.15 10.75-27.5 8.78-26.45 6.8-25.4 5.53-23.85 4.25-22.3 4.25-20.25L4.25-20.25Q4.25-19 4.78-17.98 5.3-16.95 5.98-16.2 6.65-15.45 7.18-15 7.7-14.55 7.7-14.4L7.7-14.4Q7.7-14.3 7.5-14.3L7.5-14.3Q7.3-14.3 7.1-14.4 6.9-14.5 6.75-14.55L6.75-14.55Q5.7-15.25 4.55-16.3 3.4-17.35 2.63-18.63 1.85-19.9 1.85-21.3L1.85-21.3Q1.85-23 2.9-24.33 3.95-25.65 5.65-26.65 7.35-27.65 9.3-28.35 11.25-29.05 13.08-29.48 14.9-29.9 16.15-30.1L16.15-30.1Q18.25-30.45 20.4-30.63 22.55-30.8 24.7-30.8L24.7-30.8Q26.5-30.8 28.2-30.65L28.2-30.65Q28.5-31.25 29.43-31.5 30.35-31.75 30.9-31.75L30.9-31.75Q31.15-31.75 31.6-31.68 32.05-31.6 32.05-31.25L32.05-31.25Q32.05-31.05 31.75-30.75 31.45-30.45 31.3-30.3L31.3-30.3Q33.65-29.9 36.25-29.03 38.85-28.15 41.15-26.68 43.45-25.2 44.88-23.1 46.3-21 46.3-18.2L46.3-18.2Q46.3-15.75 45.18-13.58 44.05-11.4 42.18-9.55 40.3-7.7 38.05-6.18 35.8-4.65 33.52-3.48 31.25-2.3 29.3-1.45L29.3-1.45Q25.8 0 21.83 0.88 17.85 1.75 14.05 1.75L14.05 1.75Q12.75 1.75 11.4 1.6L11.4 1.6Q11.35 2.05 11.28 2.48 11.2 2.9 11.2 3.3L11.2 3.3Q11.2 3.7 11.35 4.23 11.5 4.75 12.05 4.75L12.05 4.75Q12.75 4.75 13.4 4.23 14.05 3.7 14.55 3.18 15.05 2.65 15.25 2.65L15.25 2.65Q15.35 2.65 15.35 2.8L15.35 2.8Q15.35 2.85 15.33 2.88 15.3 2.9 15.3 2.95L15.3 2.95Q15.2 3.5 14.7 4.08 14.2 4.65 13.65 4.9L13.65 4.9Q13 5.2 12 5.48 11 5.75 10.2 5.75ZM11.65 0.55L11.65 0.55 11.95 0.55Q14.55 0.55 17.4-0.03 20.25-0.6 23-1.53 25.75-2.45 28.05-3.5L28.05-3.5Q29.7-4.25 31.83-5.38 33.95-6.5 36.1-7.93 38.25-9.35 40.08-11.08 41.9-12.8 43.03-14.78 44.15-16.75 44.15-18.95L44.15-18.95Q44.15-21.4 42.8-23.23 41.45-25.05 39.33-26.3 37.2-27.55 34.85-28.3 32.5-29.05 30.5-29.35L30.5-29.35Q27.55-25.9 24.78-22.3 22-18.7 19.5-14.95L19.5-14.95Q22.6-15.65 25.88-16.07 29.15-16.5 32.35-16.5L32.35-16.5Q32.35-16.5 32.58-16.5 32.8-16.5 32.8-16.4L32.8-16.4Q32.8-16.25 32.55-16.2 32.3-16.15 32.25-16.15L32.25-16.15Q25.4-15.65 18.6-13.6L18.6-13.6Q16.6-10.55 14.63-6.8 12.65-3.05 11.65 0.55ZM8.75 0.2L8.75 0.2Q9.9-3.2 11.78-6.4 13.65-9.6 15.55-12.65L15.55-12.65Q14.35-12.2 12.4-11.43 10.45-10.65 8.53-9.55 6.6-8.45 5.28-7.1 3.95-5.75 3.95-4.2L3.95-4.2Q3.95-3 4.73-2.1 5.5-1.2 6.63-0.63 7.75-0.05 8.75 0.2ZM48.1 0.4L48.1 0.4Q47 0.4 46.37-0.03 45.75-0.45 45.75-1.7L45.75-1.7Q45.75-3.25 46.57-5.15 47.4-7.05 48.55-8.83 49.7-10.6 50.7-11.75L50.7-11.75 50.7-11.85Q50.7-13.05 51.67-13.83 52.65-14.6 53.95-14.98 55.25-15.35 56.2-15.35L56.2-15.35Q57.5-15.35 58.37-14.75 59.25-14.15 59.25-12.7L59.25-12.7Q59.25-11.45 58.6-9.83 57.95-8.2 56.92-6.53 55.9-4.85 54.75-3.48 53.6-2.1 52.65-1.3L52.65-1.3Q53.4-0.4 54.6-0.4L54.6-0.4Q54.7-0.4 54.85-0.35 55-0.3 55-0.2L55-0.2Q55 0 54.82 0.05 54.65 0.1 54.5 0.1L54.5 0.1Q53.85 0.1 53.27-0.23 52.7-0.55 52.25-1.05L52.25-1.05Q50.4 0.4 48.1 0.4ZM52.2-1.95L52.2-1.95Q53.3-3 54.37-4.88 55.45-6.75 56.2-8.78 56.95-10.8 56.95-12.3L56.95-12.3Q56.95-12.9 56.7-13.55 56.45-14.2 55.65-14.2L55.65-14.2Q55.05-14.2 54.5-13.75 53.95-13.3 53.7-12.75L53.7-12.75Q53.8-12.6 53.92-12.35 54.05-12.1 54.05-11.9L54.05-11.9Q54.05-11.7 53.95-11.65L53.95-11.65Q53.3-11.3 52.72-10.88 52.15-10.45 51.6-9.9L51.6-9.9Q51.4-9.15 51.3-8.35 51.2-7.55 51.2-6.75L51.2-6.75Q51.2-5.6 51.42-4.3 51.65-3 52.2-1.95ZM50.1-0.85L50.1-0.85Q50.6-0.85 51.02-1.07 51.45-1.3 51.8-1.6L51.8-1.6Q51-2.85 50.65-4.5 50.3-6.15 50.3-7.6L50.3-7.6Q49.65-6.55 49.1-5.43 48.55-4.3 48.55-3L48.55-3Q48.55-2.25 48.87-1.55 49.2-0.85 50.1-0.85ZM58.85 0.75L58.85 0.75Q58.5 0.75 58.55 0.5L58.55 0.5Q59.95-1.9 61.12-4.4 62.3-6.9 63.35-9.45L63.35-9.45Q63.35-9.55 63.55-10.03 63.75-10.5 63.75-10.55L63.75-10.55Q63.75-10.7 63.5-10.65 63.25-10.6 63.25-10.8L63.25-10.8Q63.25-10.9 63.65-11.58 64.05-12.25 64.5-12.98 64.95-13.7 65.05-13.85L65.05-13.85Q65.3-14.15 66-14.45 66.7-14.75 67.05-14.75L67.05-14.75Q67.55-14.75 67.55-14.3L67.55-14.3Q67.55-14.15 67.2-13.3 66.84-12.45 66.3-11.3 65.75-10.15 65.2-8.95 64.65-7.75 64.2-6.85 63.75-5.95 63.6-5.65L63.6-5.65Q64-6.15 64.92-7.13 65.84-8.1 67.02-9.25 68.2-10.4 69.4-11.48 70.59-12.55 71.57-13.23 72.55-13.9 73.09-13.9L73.09-13.9Q73.5-13.9 73.57-13.6 73.65-13.3 73.65-13.05L73.65-13.05Q73.65-12.4 73.5-11.7 73.34-11 73.15-10.35L73.15-10.35Q72.75-8.85 72.17-6.83 71.59-4.8 71.59-3.3L71.59-3.3Q71.59-2.55 71.87-1.93 72.15-1.3 73.05-1.3L73.05-1.3Q73.75-1.3 74.52-1.75 75.3-2.2 75.97-2.83 76.65-3.45 77.17-3.9 77.7-4.35 77.84-4.35L77.84-4.35Q77.9-4.35 77.9-4.25L77.9-4.25Q77.9-4.1 77.82-3.88 77.75-3.65 77.65-3.55L77.65-3.55Q76.84-2.3 75.32-1.15 73.8 0 72.3 0L72.3 0Q70.75 0 69.97-0.93 69.2-1.85 69.2-3.35L69.2-3.35Q69.2-4.65 69.67-6.25 70.15-7.85 70.5-9.15L70.5-9.15Q70.59-9.55 70.77-10.1 70.95-10.65 70.95-11.05L70.95-11.05Q70.95-11.15 70.9-11.3 70.84-11.45 70.7-11.45L70.7-11.45Q70.45-11.45 70.07-11.18 69.7-10.9 69.5-10.75L69.5-10.75Q68.55-9.95 67.37-8.7 66.2-7.45 65.05-5.98 63.9-4.5 62.95-3.1 62-1.7 61.45-0.6L61.45-0.6Q61.35-0.35 60.82-0.03 60.3 0.3 59.72 0.53 59.15 0.75 58.85 0.75ZM78.09 0.35L78.09 0.35Q76.99 0.35 76.64 0 76.29-0.35 76.29-1.45L76.29-1.45Q76.29-2.65 76.87-4.2 77.44-5.75 77.94-6.8L77.94-6.8Q77.94-6.85 77.92-6.88 77.89-6.9 77.89-6.95L77.89-6.95Q77.89-7.2 78.07-7.35 78.24-7.5 78.34-7.65L78.34-7.65Q78.59-8.05 78.79-8.45 78.99-8.85 79.19-9.2L79.19-9.2Q80.04-10.55 81.27-11.8 82.49-13.05 84.04-13.5L84.04-13.5Q84.59-13.65 85.09-13.65L85.09-13.65Q85.19-13.65 85.32-13.63 85.44-13.6 85.44-13.5L85.44-13.5Q85.44-13.35 85.17-13.15 84.89-12.95 84.79-12.85L84.79-12.85Q83.99-12.2 83.07-10.85 82.14-9.5 81.59-8.65L81.59-8.65Q82.74-8.85 83.87-8.95 84.99-9.05 86.09-8.95L86.09-8.95Q86.64-9.75 87.12-10.93 87.59-12.1 87.59-13.1L87.59-13.1Q87.59-13.65 87.47-13.75 87.34-13.85 86.89-13.85L86.89-13.85Q86.79-13.85 86.59-13.9 86.39-13.95 86.39-14.1L86.39-14.1Q86.39-14.3 86.84-14.45 87.29-14.6 87.79-14.68 88.29-14.75 88.44-14.75L88.44-14.75Q89.79-14.75 89.79-13.5L89.79-13.5Q89.79-12.8 89.37-11.83 88.94-10.85 88.32-10.03 87.69-9.2 87.09-8.85L87.09-8.85Q87.24-8.85 87.72-8.72 88.19-8.6 88.62-8.45 89.04-8.3 89.04-8.1L89.04-8.1Q89.04-7.95 88.74-7.93 88.44-7.9 88.34-7.9L88.34-7.9Q87.89-7.9 87.44-7.98 86.99-8.05 86.54-8.05L86.54-8.05Q85.14-8.05 83.72-7.85 82.29-7.65 80.89-7.35L80.89-7.35Q80.39-6.45 79.77-5.05 79.14-3.65 79.14-2.55L79.14-2.55Q79.14-0.8 80.94-0.8L80.94-0.8Q82.24-0.8 83.47-1.5 84.69-2.2 85.74-3.15 86.79-4.1 87.44-4.8 88.09-5.5 88.19-5.5L88.19-5.5Q88.34-5.5 88.34-5.3L88.34-5.3Q88.34-4.7 87.64-3.88 86.94-3.05 86.49-2.7L86.49-2.7Q84.74-1.35 82.57-0.5 80.39 0.35 78.09 0.35ZM91.84 0L91.84 0Q89.39 0 89.39-2.5L89.39-2.5Q89.39-4 90.12-5.88 90.84-7.75 91.82-9.6 92.79-11.45 93.44-12.75L93.44-12.75Q92.74-12.7 91.82-12.53 90.89-12.35 90.24-12.35L90.24-12.35Q90.04-12.35 89.87-12.43 89.69-12.5 89.69-12.7L89.69-12.7Q89.69-13 89.99-13.1L89.99-13.1Q90.34-13.35 90.72-13.55 91.09-13.75 91.44-13.95L91.44-13.95Q92.44-14.6 93.37-15.38 94.29-16.15 95.14-17L95.14-17Q95.34-17.4 95.52-17.73 95.69-18.05 96.19-18.2L96.19-18.2Q96.59-18.3 97.34-18.65 98.09-19 98.44-19L98.44-19Q98.69-19 98.69-18.8L98.69-18.8Q98.69-18.65 98.37-18 98.04-17.35 97.59-16.53 97.14-15.7 96.77-15.03 96.39-14.35 96.29-14.2L96.29-14.2Q96.59-14.2 97.37-14.2 98.14-14.2 99.04-14.15 99.94-14.1 100.59-13.95 101.24-13.8 101.24-13.55L101.24-13.55Q101.24-13.35 100.97-13.28 100.69-13.2 100.39-13.2L100.39-13.2Q99.19-13.2 98.02-13.18 96.84-13.15 95.69-13L95.69-13Q95.19-12.1 94.52-10.78 93.84-9.45 93.17-7.98 92.49-6.5 92.04-5.13 91.59-3.75 91.59-2.75L91.59-2.75Q91.59-2.1 91.87-1.7 92.14-1.3 92.84-1.3L92.84-1.3Q93.54-1.3 94.39-1.75 95.24-2.2 96.02-2.83 96.79-3.45 97.37-3.9 97.94-4.35 98.09-4.35L98.09-4.35Q98.14-4.35 98.14-4.33 98.14-4.3 98.14-4.3L98.14-4.3Q98.14-4.1 98.02-3.88 97.89-3.65 97.79-3.55L97.79-3.55Q97.14-2.75 96.14-1.93 95.14-1.1 94.02-0.55 92.89 0 91.84 0ZM92.34-13.9L92.34-13.9Q92.79-14 93.22-14.03 93.64-14.05 94.04-14.1L94.04-14.1Q94.19-14.45 94.29-14.8 94.39-15.15 94.49-15.5L94.49-15.5Q93.94-15.15 93.42-14.73 92.89-14.3 92.34-13.9ZM98.29 1.15L98.29 1.15Q98.09 1.15 97.39 1.07 96.69 1 96.69 0.6L96.69 0.6Q96.69 0.35 97.06 0.08 97.44-0.2 97.64-0.35L97.64-0.35Q99.04-1.15 101.14-1.53 103.24-1.9 104.79-2.05L104.79-2.05Q104.89-2.25 104.89-2.45L104.89-2.45Q104.89-3.25 104.14-3.9 103.39-4.55 102.41-5.2 101.44-5.85 100.69-6.68 99.94-7.5 99.94-8.6L99.94-8.6Q99.94-8.9 100.04-9.18 100.14-9.45 100.24-9.7L100.24-9.7Q101.39-11.85 103.36-12.95 105.34-14.05 107.64-14.55L107.64-14.55Q107.84-14.65 108.04-14.65 108.24-14.65 108.44-14.65L108.44-14.65Q109.14-14.65 109.61-14.28 110.09-13.9 110.09-13.15L110.09-13.15Q110.09-12.2 109.39-11.33 108.69-10.45 107.79-10.2L107.79-10.2 107.64-10.2Q107.59-10.2 107.59-10.3L107.59-10.3Q107.59-10.7 107.76-11.1 107.94-11.5 107.94-11.9L107.94-11.9Q107.94-12.6 107.41-12.88 106.89-13.15 106.24-13.15L106.24-13.15Q104.84-13.15 103.56-12.28 102.29-11.4 102.29-9.9L102.29-9.9Q102.29-8.7 102.96-7.95 103.64-7.2 104.49-6.65 105.34-6.1 106.01-5.48 106.69-4.85 106.69-3.85L106.69-3.85Q106.69-3.35 106.46-2.9 106.24-2.45 105.99-2.05L105.99-2.05Q106.44-2.1 106.86-2.13 107.29-2.15 107.74-2.15L107.74-2.15Q108.04-2.15 108.04-2L108.04-2Q108.04-1.8 107.84-1.7 107.64-1.6 107.49-1.55L107.49-1.55Q106.99-1.5 106.49-1.4 105.99-1.3 105.44-1.2L105.44-1.2Q104.04 0.1 102.11 0.63 100.19 1.15 98.29 1.15Z" opacity="1" transform="matrix(1,0,0,1,0,0)" fill="#ffffff" class="wordmark-text-0" data-fill-palette-color="primary" id="text-0"></path></svg></g></svg></g></svg></g></svg></g><g></g></svg></g><defs></defs></svg><rect width="395.52" height="136.63749424228465" fill="none" stroke="none" visibility="hidden"></rect></g></svg></g></svg>