<svg xmlns="http://www.w3.org/2000/svg" version="1.1" xmlns:xlink="http://www.w3.org/1999/xlink" xmlns:svgjs="http://svgjs.dev/svgjs" width="610" height="1117" viewBox="0 0 0 0">
  <g transform="matrix(0.8046875,0,0,0.8046875,12.333870967741937,21.506708173639076)">
    <svg viewBox="0 0 155 129" data-background-color="#ffffff" preserveAspectRatio="xMidYMid meet" height="106" width="128" xmlns="http://www.w3.org/2000/svg" xmlns:xlink="http://www.w3.org/1999/xlink">
      <g id="tight-bounds" transform="matrix(1,0,0,1,0.25,-0.23463687150837131)">
        <svg viewBox="0 0 154.5 129.46927374301677" height="129.46927374301677" width="154.5">
          <g>
            <svg viewBox="0 0 154.5 129.46927374301677" height="129.46927374301677" width="154.5">
              <g>
                <svg viewBox="0 0 154.5 129.46927374301677" height="129.46927374301677" width="154.5">
                  <g id="textblocktransform">
                    <svg viewBox="0 0 154.5 129.46927374301677" height="129.46927374301677" width="154.5" id="textblock">
                      <g>
                        <svg viewBox="0 0 154.5 129.46927374301677" height="129.46927374301677" width="154.5">
                          <g transform="matrix(1,0,0,1,0,0)">
                            <svg width="154.5" viewBox="1.55 -31.75 44.75 37.5" height="129.46927374301677" data-palette-color="#61777f">
                              <path d="M10.2 5.75L10.2 5.75Q8.05 5.75 8.05 3.5L8.05 3.5Q8.05 2.4 8.45 1.1L8.45 1.1Q7.55 0.9 6.38 0.5 5.2 0.1 4.1-0.53 3-1.15 2.27-2.05 1.55-2.95 1.55-4.1L1.55-4.1Q1.55-5.4 2.4-6.55 3.25-7.7 4.15-8.5L4.15-8.5Q5.65-9.9 7.8-11 9.95-12.1 12.28-12.9 14.6-13.7 16.55-14.2L16.55-14.2Q17.9-16.25 19.33-18.28 20.75-20.3 22.15-22.3L22.15-22.3Q22.95-23.35 23.73-24.43 24.5-25.5 25.35-26.45L25.35-26.45Q25.3-26.85 25.73-27.5 26.15-28.15 26.68-28.78 27.2-29.4 27.45-29.7L27.45-29.7Q26.7-29.75 25.98-29.78 25.25-29.8 24.5-29.8L24.5-29.8Q22.5-29.8 20.5-29.63 18.5-29.45 16.55-29.1L16.55-29.1Q14.95-28.8 12.85-28.15 10.75-27.5 8.78-26.45 6.8-25.4 5.53-23.85 4.25-22.3 4.25-20.25L4.25-20.25Q4.25-19 4.78-17.98 5.3-16.95 5.98-16.2 6.65-15.45 7.18-15 7.7-14.55 7.7-14.4L7.7-14.4Q7.7-14.3 7.5-14.3L7.5-14.3Q7.3-14.3 7.1-14.4 6.9-14.5 6.75-14.55L6.75-14.55Q5.7-15.25 4.55-16.3 3.4-17.35 2.63-18.63 1.85-19.9 1.85-21.3L1.85-21.3Q1.85-23 2.9-24.33 3.95-25.65 5.65-26.65 7.35-27.65 9.3-28.35 11.25-29.05 13.08-29.48 14.9-29.9 16.15-30.1L16.15-30.1Q18.25-30.45 20.4-30.63 22.55-30.8 24.7-30.8L24.7-30.8Q26.5-30.8 28.2-30.65L28.2-30.65Q28.5-31.25 29.43-31.5 30.35-31.75 30.9-31.75L30.9-31.75Q31.15-31.75 31.6-31.68 32.05-31.6 32.05-31.25L32.05-31.25Q32.05-31.05 31.75-30.75 31.45-30.45 31.3-30.3L31.3-30.3Q33.65-29.9 36.25-29.03 38.85-28.15 41.15-26.68 43.45-25.2 44.88-23.1 46.3-21 46.3-18.2L46.3-18.2Q46.3-15.75 45.18-13.58 44.05-11.4 42.18-9.55 40.3-7.7 38.05-6.18 35.8-4.65 33.52-3.48 31.25-2.3 29.3-1.45L29.3-1.45Q25.8 0 21.83 0.88 17.85 1.75 14.05 1.75L14.05 1.75Q12.75 1.75 11.4 1.6L11.4 1.6Q11.35 2.05 11.28 2.48 11.2 2.9 11.2 3.3L11.2 3.3Q11.2 3.7 11.35 4.23 11.5 4.75 12.05 4.75L12.05 4.75Q12.75 4.75 13.4 4.23 14.05 3.7 14.55 3.18 15.05 2.65 15.25 2.65L15.25 2.65Q15.35 2.65 15.35 2.8L15.35 2.8Q15.35 2.85 15.33 2.88 15.3 2.9 15.3 2.95L15.3 2.95Q15.2 3.5 14.7 4.08 14.2 4.65 13.65 4.9L13.65 4.9Q13 5.2 12 5.48 11 5.75 10.2 5.75ZM11.65 0.55L11.65 0.55 11.95 0.55Q14.55 0.55 17.4-0.03 20.25-0.6 23-1.53 25.75-2.45 28.05-3.5L28.05-3.5Q29.7-4.25 31.83-5.38 33.95-6.5 36.1-7.93 38.25-9.35 40.08-11.08 41.9-12.8 43.03-14.78 44.15-16.75 44.15-18.95L44.15-18.95Q44.15-21.4 42.8-23.23 41.45-25.05 39.33-26.3 37.2-27.55 34.85-28.3 32.5-29.05 30.5-29.35L30.5-29.35Q27.55-25.9 24.78-22.3 22-18.7 19.5-14.95L19.5-14.95Q22.6-15.65 25.88-16.07 29.15-16.5 32.35-16.5L32.35-16.5Q32.35-16.5 32.58-16.5 32.8-16.5 32.8-16.4L32.8-16.4Q32.8-16.25 32.55-16.2 32.3-16.15 32.25-16.15L32.25-16.15Q25.4-15.65 18.6-13.6L18.6-13.6Q16.6-10.55 14.63-6.8 12.65-3.05 11.65 0.55ZM8.75 0.2L8.75 0.2Q9.9-3.2 11.78-6.4 13.65-9.6 15.55-12.65L15.55-12.65Q14.35-12.2 12.4-11.43 10.45-10.65 8.53-9.55 6.6-8.45 5.28-7.1 3.95-5.75 3.95-4.2L3.95-4.2Q3.95-3 4.73-2.1 5.5-1.2 6.63-0.63 7.75-0.05 8.75 0.2Z" opacity="1" transform="matrix(1,0,0,1,0,0)" fill="#61777f" class="wordmark-text-0" data-fill-palette-color="primary" id="text-0"></path>
                            </svg>
                          </g>
                        </svg>
                      </g>
                    </svg>
                  </g>
                </svg>
              </g>
            </svg>
          </g>
        </svg>
      </g>
    </svg>
  </g>
</svg>
