<?xml version="1.0" encoding="UTF-8"?>
<svg xmlns="http://www.w3.org/2000/svg" xmlns:xlink="http://www.w3.org/1999/xlink" width="420px" height="680px" viewBox="0 0 420 680" version="1.1">
<defs>
<clipPath id="clip1">
  <path d="M 41.851562 114.253906 L 377.058594 114.253906 L 377.058594 567.394531 L 41.851562 567.394531 Z M 41.851562 114.253906 "/>
</clipPath>
</defs>
<g id="surface1">
<g clip-path="url(#clip1)" clip-rule="nonzero">
<path style=" stroke:none;fill-rule:nonzero;fill:rgb(38.039216%,46.666667%,49.803922%);fill-opacity:1;" d="M 106.644531 568.21875 C 95.910156 568.21875 90.539062 559.121094 90.539062 540.929688 C 90.539062 532.039062 91.539062 522.335938 93.539062 511.824219 C 89.042969 510.207031 83.875 507.78125 78.03125 504.546875 C 72.140625 501.3125 66.445312 497.148438 60.953125 492.054688 C 55.460938 487.042969 50.890625 480.898438 47.246094 473.625 C 43.648438 466.347656 41.851562 458.058594 41.851562 448.761719 C 41.851562 438.25 43.972656 428.347656 48.21875 419.046875 C 52.464844 409.75 56.832031 401.867188 61.328125 395.398438 C 68.816406 384.078125 77.933594 373.972656 88.667969 365.078125 C 99.40625 356.183594 110.589844 348.507812 122.226562 342.039062 C 133.8125 335.570312 144.472656 330.3125 154.210938 326.273438 C 160.953125 309.695312 167.894531 293.203125 175.035156 276.789062 C 182.125 260.457031 189.167969 244.207031 196.160156 228.035156 C 200.152344 219.546875 204.097656 210.9375 207.992188 202.207031 C 211.839844 193.554688 215.882812 185.386719 220.128906 177.707031 C 219.878906 174.472656 220.828125 170.226562 222.972656 164.972656 C 225.070312 159.71875 227.445312 154.542969 230.089844 149.449219 C 232.6875 144.4375 234.613281 140.71875 235.859375 138.292969 C 232.113281 137.886719 228.445312 137.5625 224.847656 137.320312 C 221.203125 137.160156 217.507812 137.078125 213.761719 137.078125 C 203.773438 137.078125 193.789062 137.765625 183.796875 139.140625 C 173.8125 140.597656 163.949219 142.738281 154.210938 145.566406 C 146.222656 147.992188 136.984375 151.835938 126.496094 157.089844 C 116.007812 162.34375 105.847656 169.21875 96.007812 177.707031 C 86.121094 186.195312 78.007812 196.707031 71.664062 209.238281 C 65.273438 221.773438 62.078125 236.324219 62.078125 252.898438 C 62.078125 263.003906 63.402344 272.179688 66.046875 280.429688 C 68.644531 288.757812 71.640625 295.953125 75.035156 302.015625 C 78.382812 308.078125 81.378906 312.929688 84.023438 316.570312 C 86.621094 320.207031 87.917969 322.632812 87.917969 323.847656 C 87.917969 324.65625 87.421875 325.058594 86.421875 325.058594 C 85.421875 325.058594 84.425781 324.65625 83.425781 323.847656 C 82.425781 323.039062 81.550781 322.429688 80.800781 322.027344 C 75.558594 316.367188 70.066406 309.292969 64.324219 300.804688 C 58.582031 292.3125 53.789062 282.894531 49.941406 272.546875 C 46.046875 262.277344 44.101562 251.484375 44.101562 240.164062 C 44.101562 226.417969 46.71875 214.171875 51.964844 203.417969 C 57.207031 192.746094 64.074219 183.367188 72.5625 175.28125 C 81.050781 167.195312 90.167969 160.324219 99.902344 154.664062 C 109.640625 149.003906 119.078125 144.4375 128.21875 140.960938 C 137.308594 137.5625 144.972656 135.058594 151.214844 133.441406 C 161.699219 130.609375 172.3125 128.46875 183.050781 127.011719 C 193.789062 125.636719 204.523438 124.949219 215.261719 124.949219 C 224.25 124.949219 232.988281 125.558594 241.476562 126.769531 C 242.976562 121.917969 246.046875 118.484375 250.691406 116.460938 C 255.285156 114.441406 258.957031 113.429688 261.703125 113.429688 C 262.949219 113.429688 264.699219 113.710938 266.945312 114.277344 C 269.191406 114.925781 270.316406 116.664062 270.316406 119.492188 C 270.316406 121.109375 269.566406 123.132812 268.070312 125.558594 C 266.570312 127.984375 265.449219 129.800781 264.699219 131.015625 C 276.433594 134.25 288.792969 139.382812 301.777344 146.417969 C 314.761719 153.53125 326.996094 163.03125 338.480469 174.917969 C 349.96875 186.882812 359.28125 201.355469 366.421875 218.335938 C 373.511719 235.3125 377.058594 255.121094 377.058594 277.761719 C 377.058594 297.570312 374.261719 316.246094 368.667969 333.789062 C 363.023438 351.417969 355.535156 367.707031 346.195312 382.664062 C 336.808594 397.621094 326.496094 411.246094 315.261719 423.535156 C 304.023438 435.90625 292.714844 446.820312 281.328125 456.28125 C 269.992188 465.820312 259.457031 474.027344 249.714844 480.898438 C 232.238281 492.621094 213.585938 502.039062 193.761719 509.15625 C 173.886719 516.191406 154.460938 519.707031 135.484375 519.707031 C 128.992188 519.707031 122.378906 519.101562 115.632812 517.886719 C 115.382812 521.527344 115.085938 525.082031 114.734375 528.558594 C 114.335938 531.957031 114.136719 535.269531 114.136719 538.503906 C 114.136719 541.738281 114.511719 545.5 115.261719 549.785156 C 116.007812 553.988281 117.757812 556.089844 120.503906 556.089844 C 124 556.089844 127.367188 553.988281 130.617188 549.785156 C 133.863281 545.5 136.734375 541.253906 139.230469 537.050781 C 141.726562 532.765625 143.472656 530.621094 144.472656 530.621094 C 144.972656 530.621094 145.222656 531.230469 145.222656 532.441406 C 145.222656 532.84375 145.171875 533.167969 145.074219 533.410156 C 144.921875 533.574219 144.847656 533.855469 144.847656 534.261719 C 144.347656 538.707031 142.851562 543.277344 140.355469 547.964844 C 137.859375 552.574219 135.234375 555.890625 132.488281 557.910156 C 129.242188 560.335938 125.125 562.679688 120.128906 564.945312 C 115.132812 567.128906 110.640625 568.21875 106.644531 568.21875 Z M 117.507812 505.152344 L 119.753906 505.152344 C 132.738281 505.152344 146.347656 502.808594 160.578125 498.121094 C 174.808594 493.511719 188.792969 487.445312 202.527344 479.925781 C 216.257812 472.492188 228.867188 464.527344 240.355469 456.039062 C 248.59375 449.972656 258.03125 442.375 268.667969 433.238281 C 279.257812 424.183594 289.917969 413.875 300.652344 402.3125 C 311.390625 390.832031 321.328125 378.097656 330.464844 364.109375 C 339.554688 350.203125 346.917969 335.246094 352.5625 319.238281 C 358.15625 303.308594 360.953125 286.453125 360.953125 268.664062 C 360.953125 248.855469 357.582031 231.550781 350.839844 216.757812 C 344.097656 202.042969 335.433594 189.632812 324.847656 179.527344 C 314.210938 169.417969 303.027344 161.335938 291.289062 155.269531 C 279.554688 149.207031 268.695312 144.960938 258.703125 142.535156 C 243.972656 170.429688 229.691406 198.929688 215.859375 228.035156 C 201.976562 257.144531 188.792969 286.855469 176.308594 317.175781 C 191.789062 311.515625 207.71875 306.988281 224.097656 303.59375 C 240.429688 300.117188 256.582031 298.378906 272.5625 298.378906 C 272.5625 298.378906 273.136719 298.378906 274.285156 298.378906 C 275.386719 298.378906 275.933594 298.78125 275.933594 299.589844 C 275.933594 300.804688 275.308594 301.613281 274.0625 302.015625 C 272.8125 302.421875 272.0625 302.621094 271.8125 302.621094 C 237.609375 306.664062 203.523438 316.972656 169.566406 333.546875 C 159.578125 358.207031 149.667969 385.695312 139.828125 416.015625 C 129.941406 446.335938 122.5 476.050781 117.507812 505.152344 Z M 95.785156 500.910156 C 101.527344 473.421875 109.09375 446.738281 118.480469 420.867188 C 127.820312 394.992188 137.230469 369.726562 146.71875 345.070312 C 140.726562 348.707031 132.863281 353.636719 123.125 359.863281 C 113.390625 366.171875 103.726562 373.769531 94.136719 382.664062 C 84.496094 391.558594 76.382812 401.460938 69.792969 412.378906 C 63.152344 423.292969 59.828125 435.015625 59.828125 447.546875 C 59.828125 457.25 61.777344 465.742188 65.671875 473.015625 C 69.515625 480.292969 74.261719 486.234375 79.902344 490.84375 C 85.5 495.53125 90.792969 498.886719 95.785156 500.910156 Z M 95.785156 500.910156 "/>
</g>
</g>
</svg>
