<?xml version="1.0" encoding="UTF-8"?>
<svg xmlns="http://www.w3.org/2000/svg" xmlns:xlink="http://www.w3.org/1999/xlink" width="610px" height="1000px" viewBox="0 0 610 1000" version="1.1">
<defs>
<clipPath id="clip1">
  <path d="M 60.785156 187.679688 L 547.632812 187.679688 L 547.632812 932.027344 L 60.785156 932.027344 Z M 60.785156 187.679688 "/>
</clipPath>
</defs>
<g id="surface1">
<g clip-path="url(#clip1)" clip-rule="nonzero">
<path style=" stroke:none;fill-rule:nonzero;fill:rgb(38.039216%,46.666667%,49.803922%);fill-opacity:1;" d="M 154.890625 933.382812 C 139.296875 933.382812 131.5 918.441406 131.5 888.558594 C 131.5 873.949219 132.949219 858.011719 135.851562 840.746094 C 129.324219 838.089844 121.816406 834.105469 113.332031 828.792969 C 104.773438 823.480469 96.503906 816.640625 88.527344 808.273438 C 80.550781 800.039062 73.914062 789.945312 68.617188 777.996094 C 63.394531 766.042969 60.785156 752.429688 60.785156 737.15625 C 60.785156 719.890625 63.867188 703.621094 70.03125 688.347656 C 76.199219 673.074219 82.542969 660.125 89.070312 649.5 C 99.949219 630.90625 113.1875 614.304688 128.78125 599.695312 C 144.375 585.085938 160.621094 572.472656 177.519531 561.847656 C 194.347656 551.222656 209.832031 542.589844 223.972656 535.949219 C 233.765625 508.722656 243.847656 481.628906 254.21875 454.667969 C 264.515625 427.839844 274.742188 401.144531 284.898438 374.582031 C 290.699219 360.640625 296.429688 346.496094 302.085938 332.152344 C 307.671875 317.941406 313.546875 304.527344 319.710938 291.910156 C 319.347656 286.597656 320.726562 279.625 323.84375 270.992188 C 326.890625 262.359375 330.335938 253.859375 334.179688 245.492188 C 337.953125 237.257812 340.746094 231.148438 342.558594 227.164062 C 337.117188 226.5 331.789062 225.96875 326.566406 225.570312 C 321.269531 225.304688 315.902344 225.171875 310.464844 225.171875 C 295.957031 225.171875 281.453125 226.300781 266.945312 228.558594 C 252.441406 230.949219 238.117188 234.46875 223.972656 239.117188 C 212.371094 243.101562 198.953125 249.410156 183.71875 258.042969 C 168.488281 266.675781 153.730469 277.964844 139.441406 291.910156 C 125.082031 305.855469 113.296875 323.121094 104.085938 343.707031 C 94.800781 364.292969 90.160156 388.195312 90.160156 415.421875 C 90.160156 432.023438 92.082031 447.097656 95.925781 460.644531 C 99.695312 474.324219 104.046875 486.144531 108.980469 496.105469 C 113.839844 506.066406 118.191406 514.035156 122.035156 520.011719 C 125.808594 525.988281 127.691406 529.972656 127.691406 531.964844 C 127.691406 533.292969 126.96875 533.957031 125.515625 533.957031 C 124.066406 533.957031 122.617188 533.292969 121.164062 531.964844 C 119.714844 530.636719 118.445312 529.640625 117.355469 528.976562 C 109.742188 519.679688 101.765625 508.058594 93.421875 494.113281 C 85.082031 480.167969 78.121094 464.695312 72.535156 447.695312 C 66.878906 430.828125 64.050781 413.097656 64.050781 394.503906 C 64.050781 371.925781 67.855469 351.808594 75.472656 334.144531 C 83.085938 316.613281 93.058594 301.207031 105.390625 287.925781 C 117.71875 274.644531 130.957031 263.355469 145.097656 254.058594 C 159.242188 244.761719 172.949219 237.257812 186.222656 231.546875 C 199.421875 225.96875 210.554688 221.851562 219.621094 219.195312 C 234.851562 214.546875 250.265625 211.027344 265.859375 208.636719 C 281.453125 206.378906 297.046875 205.25 312.640625 205.25 C 325.695312 205.25 338.386719 206.246094 350.71875 208.238281 C 352.894531 200.269531 357.351562 194.625 364.097656 191.304688 C 370.769531 187.984375 376.101562 186.324219 380.089844 186.324219 C 381.902344 186.324219 384.441406 186.789062 387.707031 187.71875 C 390.96875 188.78125 392.601562 191.636719 392.601562 196.285156 C 392.601562 198.941406 391.515625 202.261719 389.339844 206.246094 C 387.164062 210.230469 385.53125 213.21875 384.441406 215.210938 C 401.488281 220.523438 419.4375 228.957031 438.296875 240.511719 C 457.152344 252.199219 474.921875 267.804688 491.601562 287.328125 C 508.285156 306.984375 521.8125 330.757812 532.183594 358.648438 C 542.480469 386.535156 547.632812 419.074219 547.632812 456.261719 C 547.632812 488.800781 543.570312 519.480469 535.445312 548.300781 C 527.25 577.253906 516.371094 604.011719 502.808594 628.582031 C 489.171875 653.152344 474.195312 675.53125 457.878906 695.71875 C 441.558594 716.039062 425.132812 733.96875 408.59375 749.507812 C 392.128906 765.179688 376.828125 778.660156 362.683594 789.945312 C 337.300781 809.203125 310.210938 824.675781 281.417969 836.363281 C 252.550781 847.917969 224.335938 853.695312 196.777344 853.695312 C 187.347656 853.695312 177.738281 852.699219 167.945312 850.707031 C 167.582031 856.683594 167.148438 862.527344 166.640625 868.238281 C 166.058594 873.816406 165.769531 879.261719 165.769531 884.574219 C 165.769531 889.886719 166.3125 896.0625 167.402344 903.101562 C 168.488281 910.007812 171.027344 913.460938 175.015625 913.460938 C 180.09375 913.460938 184.988281 910.007812 189.703125 903.101562 C 194.417969 896.0625 198.589844 889.089844 202.214844 882.183594 C 205.839844 875.144531 208.378906 871.625 209.832031 871.625 C 210.554688 871.625 210.917969 872.621094 210.917969 874.613281 C 210.917969 875.277344 210.847656 875.808594 210.703125 876.207031 C 210.484375 876.472656 210.375 876.9375 210.375 877.601562 C 209.648438 884.90625 207.472656 892.410156 203.847656 900.113281 C 200.222656 907.683594 196.414062 913.128906 192.425781 916.449219 C 187.710938 920.433594 181.726562 924.285156 174.472656 928.003906 C 167.21875 931.589844 160.691406 933.382812 154.890625 933.382812 Z M 170.664062 829.789062 L 173.929688 829.789062 C 192.785156 829.789062 212.550781 825.9375 233.222656 818.234375 C 253.890625 810.664062 274.199219 800.703125 294.144531 788.351562 C 314.089844 776.136719 332.402344 763.054688 349.085938 749.109375 C 361.050781 739.148438 374.761719 726.664062 390.207031 711.65625 C 405.585938 696.78125 421.070312 679.847656 436.664062 660.855469 C 452.257812 641.996094 466.691406 621.078125 479.960938 598.101562 C 493.164062 575.261719 503.859375 550.691406 512.054688 524.394531 C 520.179688 498.230469 524.242188 470.539062 524.242188 441.320312 C 524.242188 408.78125 519.34375 380.359375 509.554688 356.058594 C 499.761719 331.886719 487.179688 311.5 471.804688 294.898438 C 456.355469 278.296875 440.109375 265.015625 423.0625 255.054688 C 406.019531 245.09375 390.246094 238.121094 375.738281 234.136719 C 354.34375 279.957031 333.601562 326.773438 313.511719 374.582031 C 293.347656 422.394531 274.199219 471.203125 256.066406 521.007812 C 278.550781 511.710938 301.6875 504.273438 325.476562 498.695312 C 349.195312 492.984375 372.65625 490.128906 395.867188 490.128906 C 395.867188 490.128906 396.699219 490.128906 398.367188 490.128906 C 399.964844 490.128906 400.761719 490.792969 400.761719 492.121094 C 400.761719 494.113281 399.855469 495.441406 398.042969 496.105469 C 396.230469 496.769531 395.140625 497.101562 394.777344 497.101562 C 345.097656 503.742188 295.59375 520.675781 246.277344 547.902344 C 231.769531 588.40625 217.375 633.5625 203.085938 683.367188 C 188.726562 733.171875 177.917969 781.980469 170.664062 829.789062 Z M 139.117188 822.816406 C 147.457031 777.664062 158.445312 733.835938 172.078125 691.335938 C 185.644531 648.835938 199.3125 607.332031 213.09375 566.828125 C 204.390625 572.804688 192.96875 580.902344 178.824219 591.128906 C 164.683594 601.488281 150.648438 613.972656 136.722656 628.582031 C 122.722656 643.191406 110.9375 659.460938 101.363281 677.390625 C 91.71875 695.320312 86.894531 714.578125 86.894531 735.164062 C 86.894531 751.101562 89.722656 765.046875 95.382812 777 C 100.964844 788.949219 107.855469 798.710938 116.050781 806.28125 C 124.175781 813.984375 131.863281 819.496094 139.117188 822.816406 Z M 139.117188 822.816406 "/>
</g>
</g>
</svg>
