<?xml version="1.0" encoding="UTF-8"?>
<svg xmlns="http://www.w3.org/2000/svg" xmlns:xlink="http://www.w3.org/1999/xlink" width="50px" height="31px" viewBox="0 0 49 31" version="1.1">
<defs>
<clipPath id="clip1">
  <path d="M 9.351562 12.652344 L 39.585938 12.652344 L 39.585938 27.949219 L 9.351562 27.949219 Z M 9.351562 12.652344 "/>
</clipPath>
<clipPath id="clip2">
  <path d="M 14 4.800781 L 35 4.800781 L 35 31 L 14 31 Z M 14 4.800781 "/>
</clipPath>
<clipPath id="clip3">
  <path d="M 13 4.800781 L 36 4.800781 L 36 31 L 13 31 Z M 13 4.800781 "/>
</clipPath>
</defs>
<g id="surface1">
<g clip-path="url(#clip1)" clip-rule="nonzero">
<path style=" stroke:none;fill-rule:nonzero;fill:rgb(100%,100%,100%);fill-opacity:1;" d="M 12.4375 14.394531 L 12.835938 12.652344 L 18.292969 12.652344 C 19.175781 12.652344 19.972656 12.820312 20.6875 13.160156 C 21.398438 13.5 22.007812 13.960938 22.507812 14.550781 C 23.007812 15.140625 23.390625 15.828125 23.660156 16.613281 C 23.929688 17.402344 24.0625 18.242188 24.0625 19.128906 C 24.0625 20.007812 23.957031 20.839844 23.75 21.617188 C 23.539062 22.394531 23.246094 23.109375 22.867188 23.765625 C 22.480469 24.421875 22.019531 25.007812 21.476562 25.523438 C 20.933594 26.039062 20.332031 26.472656 19.667969 26.832031 C 19.003906 27.195312 18.289062 27.46875 17.519531 27.660156 C 16.75 27.851562 15.941406 27.949219 15.101562 27.949219 L 9.351562 27.949219 L 9.742188 26.210938 L 11.054688 26.210938 L 13.742188 14.394531 Z M 18.035156 14.394531 L 15.796875 14.394531 L 13.132812 26.210938 L 15.320312 26.210938 C 15.871094 26.210938 16.414062 26.136719 16.949219 25.988281 C 17.488281 25.84375 18 25.628906 18.492188 25.34375 C 18.976562 25.0625 19.425781 24.71875 19.84375 24.316406 C 20.253906 23.914062 20.613281 23.457031 20.914062 22.941406 C 21.214844 22.433594 21.453125 21.871094 21.628906 21.257812 C 21.796875 20.644531 21.882812 19.988281 21.882812 19.289062 C 21.882812 18.636719 21.792969 18.015625 21.609375 17.429688 C 21.429688 16.839844 21.171875 16.320312 20.835938 15.871094 C 20.5 15.417969 20.09375 15.0625 19.621094 14.796875 C 19.148438 14.527344 18.617188 14.394531 18.035156 14.394531 Z M 27.960938 14.394531 L 28.355469 12.652344 L 33.820312 12.652344 C 34.699219 12.652344 35.496094 12.820312 36.210938 13.160156 C 36.921875 13.5 37.527344 13.960938 38.03125 14.550781 C 38.53125 15.140625 38.914062 15.828125 39.183594 16.613281 C 39.453125 17.402344 39.585938 18.242188 39.585938 19.128906 C 39.585938 20.007812 39.484375 20.839844 39.273438 21.617188 C 39.0625 22.394531 38.769531 23.109375 38.390625 23.765625 C 38.007812 24.421875 37.542969 25.007812 37 25.523438 C 36.457031 26.039062 35.855469 26.472656 35.191406 26.832031 C 34.527344 27.195312 33.808594 27.46875 33.042969 27.660156 C 32.273438 27.851562 31.46875 27.949219 30.625 27.949219 L 24.878906 27.949219 L 25.265625 26.210938 L 26.578125 26.210938 L 29.265625 14.394531 Z M 33.558594 14.394531 L 31.320312 14.394531 L 28.65625 26.210938 L 30.84375 26.210938 C 31.394531 26.210938 31.9375 26.136719 32.476562 25.988281 C 33.011719 25.84375 33.523438 25.628906 34.011719 25.34375 C 34.5 25.0625 34.949219 24.71875 35.363281 24.316406 C 35.777344 23.914062 36.136719 23.457031 36.4375 22.941406 C 36.738281 22.433594 36.976562 21.871094 37.152344 21.257812 C 37.324219 20.644531 37.40625 19.988281 37.40625 19.289062 C 37.40625 18.636719 37.316406 18.015625 37.136719 17.429688 C 36.953125 16.839844 36.695312 16.320312 36.355469 15.871094 C 36.023438 15.417969 35.621094 15.0625 35.148438 14.796875 C 34.671875 14.527344 34.140625 14.394531 33.558594 14.394531 Z M 33.558594 14.394531 "/>
</g>
<g clip-path="url(#clip2)" clip-rule="nonzero">
<path style=" stroke:none;fill-rule:nonzero;fill:rgb(100%,100%,100%);fill-opacity:1;" d="M 14.207031 9.039062 C 20 3.601562 28.941406 3.601562 34.734375 9.039062 L 33.375 9.039062 C 28.238281 4.613281 20.703125 4.613281 15.566406 9.039062 L 14.207031 9.039062 M 14.207031 31.558594 C 20 36.996094 28.941406 36.996094 34.734375 31.558594 L 33.375 31.558594 C 28.238281 35.984375 20.703125 35.984375 15.566406 31.558594 L 14.207031 31.558594 "/>
</g>
<g clip-path="url(#clip3)" clip-rule="nonzero">
<path style="fill:none;stroke-width:1;stroke-linecap:butt;stroke-linejoin:miter;stroke:rgb(100%,100%,100%);stroke-opacity:1;stroke-miterlimit:4;" d="M 114.78443 33.878509 C 161.618899 -9.446088 233.90757 -9.446088 280.742039 33.878509 L 269.751888 33.878509 C 228.223009 -1.384974 167.30346 -1.384974 125.774582 33.878509 L 114.78443 33.878509 M 114.78443 213.308323 C 161.618899 256.632919 233.90757 256.632919 280.742039 213.308323 L 269.751888 213.308323 C 228.223009 248.571806 167.30346 248.571806 125.774582 213.308323 L 114.78443 213.308323 " transform="matrix(0.12369,0,0,0.125506,0.00931258,4.787104)"/>
</g>
</g>
</svg>
