<svg xmlns="http://www.w3.org/2000/svg" version="1.1" xmlns:xlink="http://www.w3.org/1999/xlink" xmlns:svgjs="http://svgjs.dev/svgjs" width="2000" height="1247" viewBox="0 0 2000 1247"><g transform="matrix(1,0,0,1,-1.2121212121212466,0.504858299595071)"><svg viewBox="0 0 396 247" data-background-color="#010536" preserveAspectRatio="xMidYMid meet" height="1247" width="2000" xmlns="http://www.w3.org/2000/svg" xmlns:xlink="http://www.w3.org/1999/xlink"><g id="tight-bounds" transform="matrix(1,0,0,1,0.2400000000000091,-0.09999999999999432)"><svg viewBox="0 0 395.52 247.2" height="247.2" width="395.52"><g><svg></svg></g><g><svg viewBox="0 0 395.52 247.2" height="247.2" width="395.52"><g transform="matrix(1,0,0,1,82.88535140186916,47.215199999999996)"><svg viewBox="0 0 229.74929719626167 152.7696" height="152.7696" width="229.74929719626167"><g><svg viewBox="0 0 229.74929719626167 152.7696" height="152.7696" width="229.74929719626167"><g><svg viewBox="0 0 229.74929719626167 152.7696" height="152.7696" width="229.74929719626167"><g><svg viewBox="0 0 229.74929719626167 152.7696" height="152.7696" width="229.74929719626167"><g id="textblocktransform"><svg viewBox="0 0 229.74929719626167 152.7696" height="152.7696" width="229.74929719626167" id="textblock"><g><svg viewBox="0 0 229.74929719626167 152.7696" height="152.7696" width="229.74929719626167"><g transform="matrix(1,0,0,1,0,0)"><svg width="229.74929719626167" viewBox="3.64 -31.35 47.14 31.35" height="152.7696" data-palette-color="#fbfbf8"><path d="M10.57 0L10.57 0 3.64 0 3.64-31.35 10.3-31.35Q13.09-31.35 15.16-30.98 17.24-30.62 18.76-29.76 20.29-28.91 21.28-27.71 22.27-26.51 22.86-24.67 23.46-22.83 23.71-20.65 23.95-18.48 23.95-15.53L23.95-15.53Q23.95-13.26 23.82-11.52 23.68-9.79 23.32-8.11 22.95-6.42 22.31-5.22 21.68-4.03 20.68-2.99 19.68-1.95 18.27-1.33 16.87-0.71 14.94-0.35 13.01 0 10.57 0ZM10.3-28.91L10.3-28.91 6.76-28.91 6.76-2.44 10.57-2.44Q12.13-2.44 13.39-2.6 14.65-2.76 15.65-3.04 16.65-3.32 17.41-3.83 18.16-4.35 18.71-4.92 19.26-5.49 19.64-6.37 20.02-7.25 20.25-8.12 20.48-8.98 20.61-10.24 20.73-11.5 20.78-12.68 20.83-13.87 20.83-15.53L20.83-15.53Q20.83-18.12 20.68-19.89 20.53-21.66 20.13-23.25 19.73-24.85 19.01-25.84 18.29-26.83 17.1-27.56 15.92-28.3 14.26-28.6 12.6-28.91 10.3-28.91ZM37.4 0L37.4 0 30.47 0 30.47-31.35 37.13-31.35Q39.91-31.35 41.99-30.98 44.06-30.62 45.59-29.76 47.12-28.91 48.11-27.71 49.09-26.51 49.69-24.67 50.29-22.83 50.53-20.65 50.78-18.48 50.78-15.53L50.78-15.53Q50.78-13.26 50.64-11.52 50.51-9.79 50.14-8.11 49.78-6.42 49.14-5.22 48.51-4.03 47.51-2.99 46.51-1.95 45.1-1.33 43.7-0.71 41.77-0.35 39.84 0 37.4 0ZM37.13-28.91L37.13-28.91 33.59-28.91 33.59-2.44 37.4-2.44Q38.96-2.44 40.22-2.6 41.48-2.76 42.48-3.04 43.48-3.32 44.24-3.83 44.99-4.35 45.54-4.92 46.09-5.49 46.47-6.37 46.85-7.25 47.08-8.12 47.31-8.98 47.43-10.24 47.56-11.5 47.6-12.68 47.65-13.87 47.65-15.53L47.65-15.53Q47.65-18.12 47.51-19.89 47.36-21.66 46.96-23.25 46.56-24.85 45.83-25.84 45.11-26.83 43.93-27.56 42.75-28.3 41.09-28.6 39.43-28.91 37.13-28.91Z" opacity="1" transform="matrix(1,0,0,1,0,0)" fill="#ffffff" class="wordmark-text-0" data-fill-palette-color="primary" id="text-0"></path></svg></g></svg></g></svg></g></svg></g></svg></g></svg></g></svg></g><g><path d="M0 123.6c0-68.262 55.338-123.6 123.6-123.6 30.402 0 58.24 10.976 79.768 29.183l-11.147 0c-19.26-14.022-42.974-22.294-68.621-22.295-64.458 0-116.712 52.254-116.712 116.712 0 64.458 52.254 116.712 116.712 116.712 25.647 0 49.361-8.272 68.621-22.295l11.147 0c-21.528 18.206-49.366 29.183-79.768 29.183-68.262 0-123.6-55.338-123.6-123.6z" fill="#ffffff" stroke="transparent" data-fill-palette-color="tertiary"></path></g></svg></g><defs></defs></svg><rect width="395.52" height="247.2" fill="none" stroke="none" visibility="hidden"></rect></g></svg></g></svg>