<svg width="16" height="18" viewBox="0 0 16 18" fill="none" xmlns="http://www.w3.org/2000/svg">
<path fill-rule="evenodd" clip-rule="evenodd" d="M4.01183 2.33184C4.21803 0.990305 5.37132 0 6.72743 0H9.29346C10.6496 0 11.8028 0.990306 12.0091 2.33184L12.1118 2.99996H13.501H15.0042L15.0042 3H16.0033V4.5H14.8876L14.0536 15.2326C13.9322 16.7945 12.6305 18 11.0653 18H4.95556C3.39033 18 2.08864 16.7945 1.96726 15.2326L1.13325 4.5H0.0175781V3H1.01669L1.01669 2.99996H2.51987H3.90913L4.01183 2.33184ZM10.5955 2.99996H5.42543L5.49306 2.55993C5.58679 1.95014 6.11101 1.5 6.72743 1.5H9.29346C9.90987 1.5 10.4341 1.95014 10.5278 2.55993L10.5955 2.99996ZM2.63644 4.5L3.46141 15.1163C3.5221 15.8972 4.17295 16.5 4.95556 16.5H11.0653C11.8479 16.5 12.4988 15.8972 12.5595 15.1163L13.3844 4.5L2.63644 4.5Z" fill="#A5A8AD"/>
</svg>
